# xmcd
#
# Track frame offsets: 
#        150
#        13415
#        28370
#        40620
#        50917
#        61857
#        78415
#        90387
#        112107
#        120465
#
# Disc length: 1821 seconds
#
# Revision: 2
# Processed by: cddbd v1.5.2PL0 Copyright (c) Steve Scherf et al.
# Submitted via: ExactAudioCopy v1.0b3
#
DISCID=82071b0a
DTITLE=Various Artist - Cool Christmas
DYEAR=1998
DGENRE=Weihnachtsmusik
TTITLE0=L.Armstrong a. the Commanders -63 - Cool Yule
TTITLE1=Ella Fitzgerald -78 - It came upon a Midnight Clear
TTITLE2=Lionel Hampton - Boogie Woogie Santa Claus
TTITLE3=Peggy Lee -60 - Santa Claus is coming to Town
TTITLE4=Lena Horne -66 - Let It Snow! Let It Snow! Let It Snow!
TTITLE5=Lou Rawls -65 - Have yourself a Merry little Christmas
TTITLE6=Nacy Wilson -68 - The Christmas Waltz
TTITLE7=Charles Brown -94 - Merry Christmas Baby
TTITLE8=Mills Brothers -59 - Here comes Santa Claus
TTITLE9=Patti Page - Christmas Bells
EXTD=
EXTT0=
EXTT1=
EXTT2=
EXTT3=
EXTT4=
EXTT5=
EXTT6=
EXTT7=
EXTT8=
EXTT9=
PLAYORDER=
